<?xml version="1.0" encoding="UTF-8"?>
<svg version="1.1" xmlns="http://www.w3.org/2000/svg" width="512" height="512">
<path d="M0 0 C0.88682465 -0.00979385 1.77364929 -0.01958771 2.68734741 -0.02967834 C70.09504488 -0.6204193 134.40652724 19.69617111 184.3828125 66.23828125 C185.73287414 67.40969579 187.08688764 68.57657545 188.4453125 69.73828125 C195.69285283 76.08351737 202.12409612 82.9100001 208.13671875 90.43359375 C209.59967741 92.26038387 211.08578205 94.06895074 212.59765625 95.85546875 C236.41016694 124.06220373 252.7062983 159.01701674 261.7578125 194.61328125 C262.0976416 195.94613159 262.0976416 195.94613159 262.44433594 197.3059082 C263.15639395 200.27272736 263.78030092 203.24723369 264.3828125 206.23828125 C264.65134033 207.51058594 264.91986816 208.78289062 265.1965332 210.09375 C267.90778445 224.0751188 267.87802751 238.13660865 267.82885742 252.32470703 C267.81968497 255.0935698 267.82656916 257.86158772 267.84936523 260.63037109 C267.99046382 277.87127771 267.15623186 294.36042147 263.3828125 311.23828125 C263.13136475 312.41825684 262.87991699 313.59823242 262.62084961 314.81396484 C262.01629787 317.49653738 261.35247218 320.1470688 260.6328125 322.80078125 C260.38096191 323.73873535 260.12911133 324.67668945 259.86962891 325.64306641 C249.16928749 364.34684215 229.73580022 399.83111659 202.3828125 429.23828125 C201.21159102 430.58851038 200.04474017 431.94254616 198.8828125 433.30078125 C192.53451089 440.551823 185.70511644 446.98691714 178.17578125 453 C176.38593902 454.43437706 174.61545544 455.89345859 172.87109375 457.3828125 C159.3474318 468.87688965 144.10108851 478.07877152 128.3828125 486.23828125 C127.70992188 486.58842285 127.03703125 486.93856445 126.34375 487.29931641 C109.77270011 495.79197947 92.0362024 502.0419592 74.0078125 506.61328125 C73.11956787 506.83967285 72.23132324 507.06606445 71.31616211 507.29931641 C68.34904064 508.01172529 65.37422839 508.63569547 62.3828125 509.23828125 C61.11050781 509.50680908 59.83820313 509.77533691 58.52734375 510.05200195 C44.54597495 512.7632532 30.4844851 512.73349626 16.29638672 512.68432617 C13.52752395 512.67515372 10.75950603 512.68203791 7.99072266 512.70483398 C-9.25018396 512.84593257 -25.73932772 512.01170061 -42.6171875 508.23828125 C-43.79716309 507.9868335 -44.97713867 507.73538574 -46.19287109 507.47631836 C-48.87544363 506.87176662 -51.52597505 506.20794093 -54.1796875 505.48828125 C-55.1176416 505.23643066 -56.0555957 504.98458008 -57.02197266 504.72509766 C-95.7257484 494.02475624 -131.21002284 474.59126897 -160.6171875 447.23828125 C-161.96741663 446.06705977 -163.32145241 444.90020892 -164.6796875 443.73828125 C-171.92722783 437.39304513 -178.35847112 430.5665624 -184.37109375 423.04296875 C-185.83405241 421.21617863 -187.32015705 419.40761176 -188.83203125 417.62109375 C-222.85038221 377.3251912 -244.53563708 321.50640807 -244.8203125 268.6640625 C-244.82732681 267.78576279 -244.83434113 266.90746307 -244.84156799 266.00254822 C-244.85896406 263.18523969 -244.86541998 260.36814151 -244.8671875 257.55078125 C-244.86786224 256.58708618 -244.86853699 255.62339111 -244.86923218 254.63049316 C-244.85326381 240.2816479 -244.35609771 226.35985209 -241.6171875 212.23828125 C-241.45621582 211.33980469 -241.29524414 210.44132813 -241.12939453 209.515625 C-236.89273294 186.10613654 -229.13245524 163.55513495 -218.6171875 142.23828125 C-218.26188965 141.50996094 -217.9065918 140.78164062 -217.54052734 140.03125 C-207.94890784 120.55855196 -195.39973779 102.46594093 -180.69921875 86.50390625 C-178.7927831 84.42936089 -176.9495314 82.31562194 -175.1171875 80.17578125 C-168.77195138 72.92824092 -161.94546865 66.49699763 -154.421875 60.484375 C-152.59508488 59.02141634 -150.78651801 57.5353117 -149 56.0234375 C-108.56999129 21.89187228 -52.96152275 0.4882876 0 0 Z " fill="#25AE88" transform="translate(244.6171875,-0.23828125)"/>
<path d="M0 0 C2.85746217 1.26998319 4.48137263 2.2838003 6.3125 4.8125 C7.24508259 7.77980823 7.37237901 9.89684156 7 13 C4.23568523 17.65705736 0.89205691 21.47439157 -2.8125 25.375 C-3.88878597 26.52402336 -4.96431107 27.67375991 -6.0390625 28.82421875 C-6.55243164 29.37255371 -7.06580078 29.92088867 -7.59472656 30.48583984 C-9.88599967 32.95465079 -12.08935046 35.49620795 -14.29296875 38.04296875 C-16.33633431 40.3855915 -18.41680859 42.69273422 -20.5 45 C-23.18983431 47.98062721 -25.86310364 50.97245233 -28.5 54 C-31.89253093 57.89512811 -35.35194201 61.72782763 -38.8125 65.5625 C-40.72554149 67.69417481 -42.61887612 69.8401911 -44.5 72 C-47.89253093 75.89512811 -51.35194201 79.72782763 -54.8125 83.5625 C-56.72554149 85.69417481 -58.61887612 87.8401911 -60.5 90 C-63.89253093 93.89512811 -67.35194201 97.72782763 -70.8125 101.5625 C-72.72554149 103.69417481 -74.61887612 105.8401911 -76.5 108 C-79.89253093 111.89512811 -83.35194201 115.72782763 -86.8125 119.5625 C-88.72554149 121.69417481 -90.61887612 123.8401911 -92.5 126 C-95.89253093 129.89512811 -99.35194201 133.72782763 -102.8125 137.5625 C-104.72554149 139.69417481 -106.61887612 141.8401911 -108.5 144 C-111.89253093 147.89512811 -115.35194201 151.72782763 -118.8125 155.5625 C-120.72554149 157.69417481 -122.61887612 159.8401911 -124.5 162 C-127.89253093 165.89512811 -131.35194201 169.72782763 -134.8125 173.5625 C-136.72554149 175.69417481 -138.61887612 177.8401911 -140.5 180 C-143.88582784 183.88743197 -147.33562313 187.71482893 -150.796875 191.53515625 C-152.82400649 193.80309946 -154.788203 196.11319703 -156.75 198.4375 C-159.2675501 201.28995355 -161.36168202 203.63563076 -165 205 C-170.79125269 204.74276549 -174.13687069 202.91237337 -178.4375 199.25 C-179.03240234 198.76337891 -179.62730469 198.27675781 -180.24023438 197.77539062 C-181.51245034 196.73304546 -182.77975499 195.6846816 -184.04248047 194.63085938 C-186.6692251 192.44245153 -189.32495014 190.29071975 -191.98071289 188.13769531 C-193.33426216 187.03993101 -194.68629921 185.94029967 -196.03686523 184.83886719 C-200.32206799 181.3454224 -204.6423594 177.90254129 -209 174.5 C-214.74010668 170.0179989 -220.39693246 165.44043443 -226.0390625 160.8359375 C-230.32451618 157.34469917 -234.64329453 153.90181112 -239 150.5 C-244.7306239 146.02540325 -250.37950784 141.457065 -256.01049805 136.85791016 C-261.14393601 132.67325327 -266.33379897 128.56607061 -271.57226562 124.51367188 C-279.33878467 118.47304595 -279.33878467 118.47304595 -280 113.6875 C-280.26700157 110.27766742 -280.04402582 108.27691666 -278 105.5 C-274.43013651 102.52511376 -272.62510287 101.91885784 -268 102 C-262.76386643 104.14644341 -258.78699437 107.4051329 -254.5 111 C-253.07372166 112.17805863 -251.64662401 113.35512593 -250.21875 114.53125 C-249.50847656 115.11777344 -248.79820312 115.70429688 -248.06640625 116.30859375 C-245.08047019 118.75265861 -242.0445635 121.12966509 -239 123.5 C-233.25920595 127.98109981 -227.60304565 132.55958344 -221.9609375 137.1640625 C-217.67548382 140.65530083 -213.35670547 144.09818888 -209 147.5 C-203.95152854 151.44195717 -198.96273378 155.45067106 -194 159.5 C-188.77324256 163.75862806 -183.53429238 168.00037002 -178.25 172.1875 C-177.39148438 172.87392578 -177.39148438 172.87392578 -176.515625 173.57421875 C-173.77760445 175.73304265 -171.14218456 177.50438424 -168 179 C-158.16577934 168.58178829 -158.16577934 168.58178829 -148.63671875 157.88671875 C-146.62126228 155.56341213 -144.56151538 153.28251535 -142.5 151 C-139.81016569 148.01937279 -137.13689636 145.02754767 -134.5 142 C-131.10746907 138.10487189 -127.64805799 134.27217237 -124.1875 130.4375 C-122.27445851 128.30582519 -120.38112388 126.1598089 -118.5 124 C-115.10746907 120.10487189 -111.64805799 116.27217237 -108.1875 112.4375 C-106.27445851 110.30582519 -104.38112388 108.1598089 -102.5 106 C-99.10746907 102.10487189 -95.64805799 98.27217237 -92.1875 94.4375 C-90.27445851 92.30582519 -88.38112388 90.1598089 -86.5 88 C-83.10746907 84.10487189 -79.64805799 80.27217237 -76.1875 76.4375 C-74.27445851 74.30582519 -72.38112388 72.1598089 -70.5 70 C-67.10746907 66.10487189 -63.64805799 62.27217237 -60.1875 58.4375 C-58.27445851 56.30582519 -56.38112388 54.1598089 -54.5 52 C-51.10746907 48.10487189 -47.64805799 44.27217237 -44.1875 40.4375 C-42.27445851 38.30582519 -40.38112388 36.1598089 -38.5 34 C-35.10746907 30.10487189 -31.64805799 26.27217237 -28.1875 22.4375 C-26.27445851 20.30582519 -24.38112388 18.1598089 -22.5 16 C-19.76145982 12.8647554 -17.01455364 9.73735233 -14.25 6.625 C-13.51265625 5.79226562 -12.7753125 4.95953125 -12.015625 4.1015625 C-8.09321402 0.01191694 -5.55376907 -0.4787732 0 0 Z " fill="#FDFEFE" transform="translate(393,144)"/>
</svg>
